<svg xmlns="http://www.w3.org/2000/svg" version="1.1" id="Layer_1" x="0px" y="0px" width="512px" height="260px" viewBox="0 0 512 260" enable-background="new 0 0 512 260" xml:space="preserve"><defs><filter id="Adobe_OpacityMaskFilter" filterUnits="userSpaceOnUse" x="0" y="221.073" width="512" height="38.928"><feColorMatrix type="matrix" values="1 0 0 0 0  0 1 0 0 0  0 0 1 0 0  0 0 0 1 0"/></filter></defs><mask maskUnits="userSpaceOnUse" x="0" y="221.073" width="512" height="38.928" id="SVGID_1_"><g filter="url(#Adobe_OpacityMaskFilter)"><linearGradient id="SVGID_2_" gradientUnits="userSpaceOnUse" x1="7344.3901" y1="5486.9741" x2="7344.3901" y2="5452.7427" gradientTransform="matrix(-1 0 0 -1 7600.3896 5709.4385)"><stop offset="0.2789" stop-color="#FFFFFF"/><stop offset="0.8432" stop-color="#000000"/></linearGradient><rect y="221.073" fill="url(#SVGID_2_)" width="512" height="38.928"/></g></mask><rect y="221.073" mask="url(#SVGID_1_)" fill="#0050C8" width="512" height="38.928"/><path fill="#B9A773" d="M0.001 259.999c0 0 84.231-30.773 256-30.773s256 30.773 256 30.773V144.75c0 0-75.449 67.199-255.507 67.199C76.436 211.95 0.001 144.75 0.001 144.75V259.999z"/><path fill="#B9A773" d="M0.001 99.648v23.878c0 0 88.815 88.817 255.625 88.817S512 123.526 512 123.526V99.648c0 0-75.852 108.018-256.375 108.018C75.103 207.666 0.001 99.648 0.001 99.648z"/><path fill="#B9A773" d="M0.001 0v74.985c0 0 88.815 133.406 255.625 133.406S512 74.985 512 74.985V0c0 0-40.518 202.77-256.375 202.77C39.77 202.77 0.001 0 0.001 0z"/></svg>